<?xml version="1.0" encoding="UTF-8"?>
<svg width="1024" height="1024" version="1.1" viewBox="-305 -516 610 610.23" xmlns="http://www.w3.org/2000/svg" xmlns:cc="http://creativecommons.org/ns#" xmlns:dc="http://purl.org/dc/elements/1.1/" xmlns:rdf="http://www.w3.org/1999/02/22-rdf-syntax-ns#" xmlns:xlink="http://www.w3.org/1999/xlink">
 <metadata>
  <rdf:RDF>
   <cc:Work rdf:about="">
    <dc:format>image/svg+xml</dc:format>
    <dc:type rdf:resource="http://purl.org/dc/dcmitype/StillImage"/>
    <dc:title>Wikimedia Commons Logo</dc:title>
   </cc:Work>
  </rdf:RDF>
 </metadata>
 <title>Wikimedia Commons Logo</title>
 <defs>
  <clipPath id="c">
   <circle r="298"/>
  </clipPath>
 </defs>
 <g transform="matrix(.71689 0 0 .71689 0 -133.1)">
  <circle r="100" fill="#900"/>
  <g fill="#069">
   <g id="arrow" clip-path="url(#c)">
    <path d="m-11 180v118h22v-118"/>
    <path d="m-43 185 43-75 43 75"/>
   </g>
   <g id="arrows3">
    <use transform="rotate(45)" width="100%" height="100%" xlink:href="#arrow"/>
    <use transform="rotate(90)" width="100%" height="100%" xlink:href="#arrow"/>
    <use transform="rotate(135)" width="100%" height="100%" xlink:href="#arrow"/>
   </g>
   <use transform="scale(-1,1)" width="100%" height="100%" xlink:href="#arrows3"/>
   <path id="blue_path" transform="rotate(-45)" d="m0-256a256 256 0 1 0 256 256c0-100-101-150-6-275" fill="none" stroke="#069" stroke-width="84"/>
   <path id="arrow_top" d="m-23-515s-36 135-80 185 116-62 170-5-90-180-90-180z"/>
  </g>
 </g>
</svg>
